# xmcd
#
# Track frame offsets:
#	150
#	17672
#	29116
#	42391
#	55920
#	72440
#	83957
#	97391
#	113198
#	128070
#	141690
#	152897
#	168591
#	187388
#	199483
#	216020
#	229059
#	241416
#
# Disc length: 3422 seconds
#
# Revision: 0
# Processed by: cddbd v1.5.2PL0 Copyright (c) Steve Scherf et al.
# Submitted via: EasyCDDAExtractor 9.1.3.1
#
DISCID=210d5c12
DTITLE=Oak Ridge Boys - Gold [CD1]
DYEAR=2007
DGENRE=Country
TTITLE0=Praise the Lord And Pass the Soup
TTITLE1=Family Reunion\n
TTITLE2=Y'All Come Back Saloon
TTITLE3=You're the One
TTITLE4=I'll Be True To You
TTITLE5=Cryin' Again
TTITLE6=Come On In
TTITLE7=Sail Away
TTITLE8=Dream On
TTITLE9=Leaving Louisiana In the Broad Daylight
TTITLE10=Trying To Love Two Women
TTITLE11=Heart Of Mine
TTITLE12=Beautiful You
TTITLE13=Elvira
TTITLE14=(I'm Settin') Fancy Free
TTITLE15=Bobbie Sue
TTITLE16=So Fine
TTITLE17=I Wish You Could Have Turned My Head (And Left My Heart Alone)
EXTD=
EXTT0=
EXTT1=
EXTT2=
EXTT3=
EXTT4=
EXTT5=
EXTT6=
EXTT7=
EXTT8=
EXTT9=
EXTT10=
EXTT11=
EXTT12=
EXTT13=
EXTT14=
EXTT15=
EXTT16=
EXTT17=
PLAYORDER=
